<mxfile host="app.diagrams.net" modified="2024-02-25T13:10:37.414Z" agent="Mozilla/5.0 (Windows NT 10.0; Win64; x64) AppleWebKit/537.36 (KHTML, like Gecko) Chrome/121.0.0.0 Safari/537.36" etag="jI9JNInAXf8jI7V_xUQI" version="23.1.6" type="device">
  <diagram id="C5RBs43oDa-KdzZeNtuy" name="Page-1">
    <mxGraphModel dx="2261" dy="1907" grid="1" gridSize="10" guides="1" tooltips="1" connect="1" arrows="1" fold="1" page="1" pageScale="1" pageWidth="827" pageHeight="1169" background="#ffffff" math="0" shadow="0">
      <root>
        <mxCell id="WIyWlLk6GJQsqaUBKTNV-0" />
        <mxCell id="WIyWlLk6GJQsqaUBKTNV-1" parent="WIyWlLk6GJQsqaUBKTNV-0" />
        <mxCell id="Gog8sl2S-dPBZnZGHHs7-5" value="Users" style="swimlane;fontStyle=1;align=center;verticalAlign=top;childLayout=stackLayout;horizontal=1;startSize=26;horizontalStack=0;resizeParent=1;resizeParentMax=0;resizeLast=0;collapsible=1;marginBottom=0;whiteSpace=wrap;html=1;" parent="WIyWlLk6GJQsqaUBKTNV-1" vertex="1">
          <mxGeometry x="-150" y="-40" width="300" height="200" as="geometry" />
        </mxCell>
        <mxCell id="a5kNeSCLx_zp2VpnFsLW-4" value="" style="endArrow=diamondThin;endFill=1;endSize=24;html=1;rounded=0;" edge="1" parent="Gog8sl2S-dPBZnZGHHs7-5" source="a5kNeSCLx_zp2VpnFsLW-0">
          <mxGeometry width="160" relative="1" as="geometry">
            <mxPoint x="-110" y="-181.96296296296305" as="sourcePoint" />
            <mxPoint x="80" y="26" as="targetPoint" />
            <Array as="points">
              <mxPoint x="80" y="-94" />
            </Array>
          </mxGeometry>
        </mxCell>
        <mxCell id="a5kNeSCLx_zp2VpnFsLW-5" value="0..*" style="edgeLabel;html=1;align=center;verticalAlign=middle;resizable=0;points=[];" vertex="1" connectable="0" parent="a5kNeSCLx_zp2VpnFsLW-4">
          <mxGeometry x="-0.7539" y="-2" relative="1" as="geometry">
            <mxPoint as="offset" />
          </mxGeometry>
        </mxCell>
        <mxCell id="Gog8sl2S-dPBZnZGHHs7-6" value="-Name: string&lt;br&gt;-Email: string&lt;br&gt;-Password: string&lt;br&gt;&lt;div&gt;-UserID: int&lt;/div&gt;" style="text;strokeColor=none;fillColor=none;align=left;verticalAlign=top;spacingLeft=4;spacingRight=4;overflow=hidden;rotatable=0;points=[[0,0.5],[1,0.5]];portConstraint=eastwest;whiteSpace=wrap;html=1;" parent="Gog8sl2S-dPBZnZGHHs7-5" vertex="1">
          <mxGeometry y="26" width="300" height="84" as="geometry" />
        </mxCell>
        <mxCell id="Gog8sl2S-dPBZnZGHHs7-7" value="" style="line;strokeWidth=1;fillColor=none;align=left;verticalAlign=middle;spacingTop=-1;spacingLeft=3;spacingRight=3;rotatable=0;labelPosition=right;points=[];portConstraint=eastwest;strokeColor=inherit;" parent="Gog8sl2S-dPBZnZGHHs7-5" vertex="1">
          <mxGeometry y="110" width="300" height="8" as="geometry" />
        </mxCell>
        <mxCell id="Gog8sl2S-dPBZnZGHHs7-8" value="+userAuth(Email,Password): bool&lt;br&gt;+changeName(NewName): string&lt;br&gt;+changePass(NewPass): void&lt;br&gt;+deleteAccount(): bool&lt;br&gt;+create_user(name,email,gender,age,password): bool" style="text;strokeColor=none;fillColor=none;align=left;verticalAlign=top;spacingLeft=4;spacingRight=4;overflow=hidden;rotatable=0;points=[[0,0.5],[1,0.5]];portConstraint=eastwest;whiteSpace=wrap;html=1;" parent="Gog8sl2S-dPBZnZGHHs7-5" vertex="1">
          <mxGeometry y="118" width="300" height="82" as="geometry" />
        </mxCell>
        <mxCell id="Gog8sl2S-dPBZnZGHHs7-10" value="Posts" style="swimlane;fontStyle=1;align=center;verticalAlign=top;childLayout=stackLayout;horizontal=1;startSize=26;horizontalStack=0;resizeParent=1;resizeParentMax=0;resizeLast=0;collapsible=1;marginBottom=0;whiteSpace=wrap;html=1;" parent="WIyWlLk6GJQsqaUBKTNV-1" vertex="1">
          <mxGeometry x="240" y="-245" width="160" height="170" as="geometry" />
        </mxCell>
        <mxCell id="Gog8sl2S-dPBZnZGHHs7-11" value="-PostID: int&lt;br&gt;-PostDate: date&lt;br&gt;-PostText: string&lt;div&gt;-likes: int&lt;/div&gt;" style="text;strokeColor=none;fillColor=none;align=left;verticalAlign=top;spacingLeft=4;spacingRight=4;overflow=hidden;rotatable=0;points=[[0,0.5],[1,0.5]];portConstraint=eastwest;whiteSpace=wrap;html=1;" parent="Gog8sl2S-dPBZnZGHHs7-10" vertex="1">
          <mxGeometry y="26" width="160" height="74" as="geometry" />
        </mxCell>
        <mxCell id="Gog8sl2S-dPBZnZGHHs7-12" value="" style="line;strokeWidth=1;fillColor=none;align=left;verticalAlign=middle;spacingTop=-1;spacingLeft=3;spacingRight=3;rotatable=0;labelPosition=right;points=[];portConstraint=eastwest;strokeColor=inherit;" parent="Gog8sl2S-dPBZnZGHHs7-10" vertex="1">
          <mxGeometry y="100" width="160" height="8" as="geometry" />
        </mxCell>
        <mxCell id="Gog8sl2S-dPBZnZGHHs7-13" value="+MakePost(Text): bool&lt;br&gt;+DeletePost(): bool&lt;br&gt;+EditPost(NewText): String&lt;br&gt;+addlikes(): int" style="text;strokeColor=none;fillColor=none;align=left;verticalAlign=top;spacingLeft=4;spacingRight=4;overflow=hidden;rotatable=0;points=[[0,0.5],[1,0.5]];portConstraint=eastwest;whiteSpace=wrap;html=1;" parent="Gog8sl2S-dPBZnZGHHs7-10" vertex="1">
          <mxGeometry y="108" width="160" height="62" as="geometry" />
        </mxCell>
        <mxCell id="Gog8sl2S-dPBZnZGHHs7-18" value="Comments" style="swimlane;fontStyle=1;align=center;verticalAlign=top;childLayout=stackLayout;horizontal=1;startSize=26;horizontalStack=0;resizeParent=1;resizeParentMax=0;resizeLast=0;collapsible=1;marginBottom=0;whiteSpace=wrap;html=1;" parent="WIyWlLk6GJQsqaUBKTNV-1" vertex="1">
          <mxGeometry x="210" y="-14" width="220" height="170" as="geometry" />
        </mxCell>
        <mxCell id="Gog8sl2S-dPBZnZGHHs7-19" value="-CommentID: int&lt;br&gt;-CommentText: string&lt;br&gt;-CommentDate: date" style="text;strokeColor=none;fillColor=none;align=left;verticalAlign=top;spacingLeft=4;spacingRight=4;overflow=hidden;rotatable=0;points=[[0,0.5],[1,0.5]];portConstraint=eastwest;whiteSpace=wrap;html=1;" parent="Gog8sl2S-dPBZnZGHHs7-18" vertex="1">
          <mxGeometry y="26" width="220" height="64" as="geometry" />
        </mxCell>
        <mxCell id="Gog8sl2S-dPBZnZGHHs7-20" value="" style="line;strokeWidth=1;fillColor=none;align=left;verticalAlign=middle;spacingTop=-1;spacingLeft=3;spacingRight=3;rotatable=0;labelPosition=right;points=[];portConstraint=eastwest;strokeColor=inherit;" parent="Gog8sl2S-dPBZnZGHHs7-18" vertex="1">
          <mxGeometry y="90" width="220" height="8" as="geometry" />
        </mxCell>
        <mxCell id="Gog8sl2S-dPBZnZGHHs7-21" value="+MakeComment(NewComment): string&lt;br&gt;+EditComment(NewComment): string&lt;br&gt;+DeleteComment(): bool&lt;br&gt;+getComments(): [CommendText]" style="text;strokeColor=none;fillColor=none;align=left;verticalAlign=top;spacingLeft=4;spacingRight=4;overflow=hidden;rotatable=0;points=[[0,0.5],[1,0.5]];portConstraint=eastwest;whiteSpace=wrap;html=1;" parent="Gog8sl2S-dPBZnZGHHs7-18" vertex="1">
          <mxGeometry y="98" width="220" height="72" as="geometry" />
        </mxCell>
        <mxCell id="Gog8sl2S-dPBZnZGHHs7-25" value="" style="endArrow=diamondThin;endFill=1;endSize=24;html=1;rounded=0;" parent="WIyWlLk6GJQsqaUBKTNV-1" source="Gog8sl2S-dPBZnZGHHs7-18" target="Gog8sl2S-dPBZnZGHHs7-10" edge="1">
          <mxGeometry width="160" relative="1" as="geometry">
            <mxPoint x="620" y="110" as="sourcePoint" />
            <mxPoint x="680" y="180" as="targetPoint" />
            <Array as="points" />
          </mxGeometry>
        </mxCell>
        <mxCell id="Gog8sl2S-dPBZnZGHHs7-33" value="0..*" style="edgeLabel;html=1;align=center;verticalAlign=middle;resizable=0;points=[];" parent="Gog8sl2S-dPBZnZGHHs7-25" vertex="1" connectable="0">
          <mxGeometry x="-0.6471" relative="1" as="geometry">
            <mxPoint as="offset" />
          </mxGeometry>
        </mxCell>
        <mxCell id="Gog8sl2S-dPBZnZGHHs7-26" value="" style="endArrow=diamondThin;endFill=1;endSize=24;html=1;rounded=0;" parent="WIyWlLk6GJQsqaUBKTNV-1" source="Gog8sl2S-dPBZnZGHHs7-18" target="Gog8sl2S-dPBZnZGHHs7-5" edge="1">
          <mxGeometry width="160" relative="1" as="geometry">
            <mxPoint x="330" y="220" as="sourcePoint" />
            <mxPoint x="420" y="360" as="targetPoint" />
          </mxGeometry>
        </mxCell>
        <mxCell id="Gog8sl2S-dPBZnZGHHs7-77" value="0..*" style="edgeLabel;html=1;align=center;verticalAlign=middle;resizable=0;points=[];" parent="Gog8sl2S-dPBZnZGHHs7-26" vertex="1" connectable="0">
          <mxGeometry x="-0.5205" y="1" relative="1" as="geometry">
            <mxPoint as="offset" />
          </mxGeometry>
        </mxCell>
        <mxCell id="Gog8sl2S-dPBZnZGHHs7-27" value="" style="endArrow=diamondThin;endFill=1;endSize=24;html=1;rounded=0;" parent="WIyWlLk6GJQsqaUBKTNV-1" source="Gog8sl2S-dPBZnZGHHs7-10" target="Gog8sl2S-dPBZnZGHHs7-5" edge="1">
          <mxGeometry width="160" relative="1" as="geometry">
            <mxPoint x="540" y="308" as="sourcePoint" />
            <mxPoint x="330" y="308" as="targetPoint" />
            <Array as="points">
              <mxPoint y="-160" />
            </Array>
          </mxGeometry>
        </mxCell>
        <mxCell id="Gog8sl2S-dPBZnZGHHs7-34" value="0..*" style="edgeLabel;html=1;align=center;verticalAlign=middle;resizable=0;points=[];" parent="Gog8sl2S-dPBZnZGHHs7-27" vertex="1" connectable="0">
          <mxGeometry x="-0.7539" y="-2" relative="1" as="geometry">
            <mxPoint as="offset" />
          </mxGeometry>
        </mxCell>
        <mxCell id="Gog8sl2S-dPBZnZGHHs7-28" value="Journal" style="swimlane;fontStyle=1;align=center;verticalAlign=top;childLayout=stackLayout;horizontal=1;startSize=26;horizontalStack=0;resizeParent=1;resizeParentMax=0;resizeLast=0;collapsible=1;marginBottom=0;whiteSpace=wrap;html=1;" parent="WIyWlLk6GJQsqaUBKTNV-1" vertex="1">
          <mxGeometry x="-100" y="240" width="200" height="170" as="geometry" />
        </mxCell>
        <mxCell id="Gog8sl2S-dPBZnZGHHs7-29" value="-TextFont: string&lt;br&gt;-TextColor: string&lt;br&gt;-PageColor: string&lt;br&gt;-Sentiment_Report: int" style="text;strokeColor=none;fillColor=none;align=left;verticalAlign=top;spacingLeft=4;spacingRight=4;overflow=hidden;rotatable=0;points=[[0,0.5],[1,0.5]];portConstraint=eastwest;whiteSpace=wrap;html=1;" parent="Gog8sl2S-dPBZnZGHHs7-28" vertex="1">
          <mxGeometry y="26" width="200" height="64" as="geometry" />
        </mxCell>
        <mxCell id="Gog8sl2S-dPBZnZGHHs7-30" value="" style="line;strokeWidth=1;fillColor=none;align=left;verticalAlign=middle;spacingTop=-1;spacingLeft=3;spacingRight=3;rotatable=0;labelPosition=right;points=[];portConstraint=eastwest;strokeColor=inherit;" parent="Gog8sl2S-dPBZnZGHHs7-28" vertex="1">
          <mxGeometry y="90" width="200" height="8" as="geometry" />
        </mxCell>
        <mxCell id="Gog8sl2S-dPBZnZGHHs7-31" value="+SetFontColor(string): void&lt;br&gt;+SetFont(string): void&lt;br&gt;+SetPageColor(string): void&lt;br&gt;+GetJournal(): pages" style="text;strokeColor=none;fillColor=none;align=left;verticalAlign=top;spacingLeft=4;spacingRight=4;overflow=hidden;rotatable=0;points=[[0,0.5],[1,0.5]];portConstraint=eastwest;whiteSpace=wrap;html=1;" parent="Gog8sl2S-dPBZnZGHHs7-28" vertex="1">
          <mxGeometry y="98" width="200" height="72" as="geometry" />
        </mxCell>
        <mxCell id="Gog8sl2S-dPBZnZGHHs7-39" value="Pages" style="swimlane;fontStyle=1;align=center;verticalAlign=top;childLayout=stackLayout;horizontal=1;startSize=26;horizontalStack=0;resizeParent=1;resizeParentMax=0;resizeLast=0;collapsible=1;marginBottom=0;whiteSpace=wrap;html=1;" parent="WIyWlLk6GJQsqaUBKTNV-1" vertex="1">
          <mxGeometry x="-85" y="467.27" width="185" height="140" as="geometry" />
        </mxCell>
        <mxCell id="Gog8sl2S-dPBZnZGHHs7-40" value="-PageNo: int&lt;br&gt;-PageDate: date" style="text;strokeColor=none;fillColor=none;align=left;verticalAlign=top;spacingLeft=4;spacingRight=4;overflow=hidden;rotatable=0;points=[[0,0.5],[1,0.5]];portConstraint=eastwest;whiteSpace=wrap;html=1;" parent="Gog8sl2S-dPBZnZGHHs7-39" vertex="1">
          <mxGeometry y="26" width="185" height="64" as="geometry" />
        </mxCell>
        <mxCell id="Gog8sl2S-dPBZnZGHHs7-41" value="" style="line;strokeWidth=1;fillColor=none;align=left;verticalAlign=middle;spacingTop=-1;spacingLeft=3;spacingRight=3;rotatable=0;labelPosition=right;points=[];portConstraint=eastwest;strokeColor=inherit;" parent="Gog8sl2S-dPBZnZGHHs7-39" vertex="1">
          <mxGeometry y="90" width="185" height="8" as="geometry" />
        </mxCell>
        <mxCell id="Gog8sl2S-dPBZnZGHHs7-42" value="+DeletePage(PageNo): bool&lt;br&gt;+getPage(PageNo/date): page" style="text;strokeColor=none;fillColor=none;align=left;verticalAlign=top;spacingLeft=4;spacingRight=4;overflow=hidden;rotatable=0;points=[[0,0.5],[1,0.5]];portConstraint=eastwest;whiteSpace=wrap;html=1;" parent="Gog8sl2S-dPBZnZGHHs7-39" vertex="1">
          <mxGeometry y="98" width="185" height="42" as="geometry" />
        </mxCell>
        <mxCell id="Gog8sl2S-dPBZnZGHHs7-43" value="Album" style="swimlane;fontStyle=1;align=center;verticalAlign=top;childLayout=stackLayout;horizontal=1;startSize=26;horizontalStack=0;resizeParent=1;resizeParentMax=0;resizeLast=0;collapsible=1;marginBottom=0;whiteSpace=wrap;html=1;" parent="WIyWlLk6GJQsqaUBKTNV-1" vertex="1">
          <mxGeometry x="-340" y="477.27" width="170" height="120" as="geometry" />
        </mxCell>
        <mxCell id="Gog8sl2S-dPBZnZGHHs7-44" value="-PhotoID: int&lt;br&gt;-PhotoAspectRatio: string" style="text;strokeColor=none;fillColor=none;align=left;verticalAlign=top;spacingLeft=4;spacingRight=4;overflow=hidden;rotatable=0;points=[[0,0.5],[1,0.5]];portConstraint=eastwest;whiteSpace=wrap;html=1;" parent="Gog8sl2S-dPBZnZGHHs7-43" vertex="1">
          <mxGeometry y="26" width="170" height="34" as="geometry" />
        </mxCell>
        <mxCell id="Gog8sl2S-dPBZnZGHHs7-45" value="" style="line;strokeWidth=1;fillColor=none;align=left;verticalAlign=middle;spacingTop=-1;spacingLeft=3;spacingRight=3;rotatable=0;labelPosition=right;points=[];portConstraint=eastwest;strokeColor=inherit;" parent="Gog8sl2S-dPBZnZGHHs7-43" vertex="1">
          <mxGeometry y="60" width="170" height="8" as="geometry" />
        </mxCell>
        <mxCell id="Gog8sl2S-dPBZnZGHHs7-46" value="+AddPhoto(file): bool&lt;br&gt;+DeletePhoto(PhotoID): void&lt;br&gt;+getPhotos(): file" style="text;strokeColor=none;fillColor=none;align=left;verticalAlign=top;spacingLeft=4;spacingRight=4;overflow=hidden;rotatable=0;points=[[0,0.5],[1,0.5]];portConstraint=eastwest;whiteSpace=wrap;html=1;" parent="Gog8sl2S-dPBZnZGHHs7-43" vertex="1">
          <mxGeometry y="68" width="170" height="52" as="geometry" />
        </mxCell>
        <mxCell id="Gog8sl2S-dPBZnZGHHs7-47" value="" style="endArrow=diamondThin;endFill=1;endSize=24;html=1;rounded=0;" parent="WIyWlLk6GJQsqaUBKTNV-1" source="Gog8sl2S-dPBZnZGHHs7-39" target="Gog8sl2S-dPBZnZGHHs7-28" edge="1">
          <mxGeometry width="160" relative="1" as="geometry">
            <mxPoint x="110" y="474" as="sourcePoint" />
            <mxPoint x="190" y="594" as="targetPoint" />
          </mxGeometry>
        </mxCell>
        <mxCell id="Gog8sl2S-dPBZnZGHHs7-56" value="1..*" style="edgeLabel;html=1;align=center;verticalAlign=middle;resizable=0;points=[];" parent="Gog8sl2S-dPBZnZGHHs7-47" vertex="1" connectable="0">
          <mxGeometry x="-0.525" y="-1" relative="1" as="geometry">
            <mxPoint as="offset" />
          </mxGeometry>
        </mxCell>
        <mxCell id="Gog8sl2S-dPBZnZGHHs7-48" value="Entry" style="swimlane;fontStyle=1;align=center;verticalAlign=top;childLayout=stackLayout;horizontal=1;startSize=26;horizontalStack=0;resizeParent=1;resizeParentMax=0;resizeLast=0;collapsible=1;marginBottom=0;whiteSpace=wrap;html=1;" parent="WIyWlLk6GJQsqaUBKTNV-1" vertex="1">
          <mxGeometry x="180" y="477.27" width="170" height="120" as="geometry" />
        </mxCell>
        <mxCell id="Gog8sl2S-dPBZnZGHHs7-49" value="-Text:string" style="text;strokeColor=none;fillColor=none;align=left;verticalAlign=top;spacingLeft=4;spacingRight=4;overflow=hidden;rotatable=0;points=[[0,0.5],[1,0.5]];portConstraint=eastwest;whiteSpace=wrap;html=1;" parent="Gog8sl2S-dPBZnZGHHs7-48" vertex="1">
          <mxGeometry y="26" width="170" height="34" as="geometry" />
        </mxCell>
        <mxCell id="Gog8sl2S-dPBZnZGHHs7-50" value="" style="line;strokeWidth=1;fillColor=none;align=left;verticalAlign=middle;spacingTop=-1;spacingLeft=3;spacingRight=3;rotatable=0;labelPosition=right;points=[];portConstraint=eastwest;strokeColor=inherit;" parent="Gog8sl2S-dPBZnZGHHs7-48" vertex="1">
          <mxGeometry y="60" width="170" height="8" as="geometry" />
        </mxCell>
        <mxCell id="Gog8sl2S-dPBZnZGHHs7-51" value="+AddText(string): string&lt;br&gt;+DeleteText(): void" style="text;strokeColor=none;fillColor=none;align=left;verticalAlign=top;spacingLeft=4;spacingRight=4;overflow=hidden;rotatable=0;points=[[0,0.5],[1,0.5]];portConstraint=eastwest;whiteSpace=wrap;html=1;" parent="Gog8sl2S-dPBZnZGHHs7-48" vertex="1">
          <mxGeometry y="68" width="170" height="52" as="geometry" />
        </mxCell>
        <mxCell id="Gog8sl2S-dPBZnZGHHs7-61" value="Sentiment_Analyser" style="swimlane;fontStyle=1;align=center;verticalAlign=top;childLayout=stackLayout;horizontal=1;startSize=26;horizontalStack=0;resizeParent=1;resizeParentMax=0;resizeLast=0;collapsible=1;marginBottom=0;whiteSpace=wrap;html=1;" parent="WIyWlLk6GJQsqaUBKTNV-1" vertex="1">
          <mxGeometry x="-380" y="255" width="180" height="140" as="geometry" />
        </mxCell>
        <mxCell id="Gog8sl2S-dPBZnZGHHs7-62" value="-Sentiment_labels: list&lt;br&gt;-model: API&lt;br&gt;-model_token: token&lt;br&gt;-Timestamp: time&lt;br&gt;-parameter: int" style="text;strokeColor=none;fillColor=none;align=left;verticalAlign=top;spacingLeft=4;spacingRight=4;overflow=hidden;rotatable=0;points=[[0,0.5],[1,0.5]];portConstraint=eastwest;whiteSpace=wrap;html=1;" parent="Gog8sl2S-dPBZnZGHHs7-61" vertex="1">
          <mxGeometry y="26" width="180" height="64" as="geometry" />
        </mxCell>
        <mxCell id="Gog8sl2S-dPBZnZGHHs7-63" value="" style="line;strokeWidth=1;fillColor=none;align=left;verticalAlign=middle;spacingTop=-1;spacingLeft=3;spacingRight=3;rotatable=0;labelPosition=right;points=[];portConstraint=eastwest;strokeColor=inherit;" parent="Gog8sl2S-dPBZnZGHHs7-61" vertex="1">
          <mxGeometry y="90" width="180" height="8" as="geometry" />
        </mxCell>
        <mxCell id="Gog8sl2S-dPBZnZGHHs7-64" value="+Analyze_Sentiment(): string&lt;br&gt;+Parameter_Configuration(): int" style="text;strokeColor=none;fillColor=none;align=left;verticalAlign=top;spacingLeft=4;spacingRight=4;overflow=hidden;rotatable=0;points=[[0,0.5],[1,0.5]];portConstraint=eastwest;whiteSpace=wrap;html=1;" parent="Gog8sl2S-dPBZnZGHHs7-61" vertex="1">
          <mxGeometry y="98" width="180" height="42" as="geometry" />
        </mxCell>
        <mxCell id="Gog8sl2S-dPBZnZGHHs7-72" value="Images" style="swimlane;fontStyle=1;align=center;verticalAlign=top;childLayout=stackLayout;horizontal=1;startSize=26;horizontalStack=0;resizeParent=1;resizeParentMax=0;resizeLast=0;collapsible=1;marginBottom=0;whiteSpace=wrap;html=1;" parent="WIyWlLk6GJQsqaUBKTNV-1" vertex="1">
          <mxGeometry x="480" y="-225" width="170" height="130" as="geometry" />
        </mxCell>
        <mxCell id="Gog8sl2S-dPBZnZGHHs7-73" value="-imageID: int&lt;br&gt;-ImageFile: file" style="text;strokeColor=none;fillColor=none;align=left;verticalAlign=top;spacingLeft=4;spacingRight=4;overflow=hidden;rotatable=0;points=[[0,0.5],[1,0.5]];portConstraint=eastwest;whiteSpace=wrap;html=1;" parent="Gog8sl2S-dPBZnZGHHs7-72" vertex="1">
          <mxGeometry y="26" width="170" height="44" as="geometry" />
        </mxCell>
        <mxCell id="Gog8sl2S-dPBZnZGHHs7-74" value="" style="line;strokeWidth=1;fillColor=none;align=left;verticalAlign=middle;spacingTop=-1;spacingLeft=3;spacingRight=3;rotatable=0;labelPosition=right;points=[];portConstraint=eastwest;strokeColor=inherit;" parent="Gog8sl2S-dPBZnZGHHs7-72" vertex="1">
          <mxGeometry y="70" width="170" height="8" as="geometry" />
        </mxCell>
        <mxCell id="Gog8sl2S-dPBZnZGHHs7-75" value="+AddImage(file): bool&lt;br&gt;+DeleteImage(imageID): bool&lt;br&gt;+getImages(imageID): file&lt;br&gt;&lt;div&gt;&lt;br&gt;&lt;/div&gt;" style="text;strokeColor=none;fillColor=none;align=left;verticalAlign=top;spacingLeft=4;spacingRight=4;overflow=hidden;rotatable=0;points=[[0,0.5],[1,0.5]];portConstraint=eastwest;whiteSpace=wrap;html=1;" parent="Gog8sl2S-dPBZnZGHHs7-72" vertex="1">
          <mxGeometry y="78" width="170" height="52" as="geometry" />
        </mxCell>
        <mxCell id="Gog8sl2S-dPBZnZGHHs7-76" value="" style="endArrow=diamondThin;endFill=1;endSize=24;html=1;rounded=0;" parent="WIyWlLk6GJQsqaUBKTNV-1" source="Gog8sl2S-dPBZnZGHHs7-72" target="Gog8sl2S-dPBZnZGHHs7-10" edge="1">
          <mxGeometry width="160" relative="1" as="geometry">
            <mxPoint x="370" y="-90" as="sourcePoint" />
            <mxPoint x="600" as="targetPoint" />
          </mxGeometry>
        </mxCell>
        <mxCell id="Gog8sl2S-dPBZnZGHHs7-78" value="0..*" style="edgeLabel;html=1;align=center;verticalAlign=middle;resizable=0;points=[];" parent="Gog8sl2S-dPBZnZGHHs7-76" vertex="1" connectable="0">
          <mxGeometry x="-0.5696" y="1" relative="1" as="geometry">
            <mxPoint as="offset" />
          </mxGeometry>
        </mxCell>
        <mxCell id="Gog8sl2S-dPBZnZGHHs7-79" value="Use" style="endArrow=open;endSize=12;dashed=1;html=1;rounded=0;" parent="WIyWlLk6GJQsqaUBKTNV-1" source="Gog8sl2S-dPBZnZGHHs7-61" target="Gog8sl2S-dPBZnZGHHs7-28" edge="1">
          <mxGeometry width="160" relative="1" as="geometry">
            <mxPoint x="-100" y="300" as="sourcePoint" />
            <mxPoint x="-100" y="310" as="targetPoint" />
            <Array as="points" />
          </mxGeometry>
        </mxCell>
        <mxCell id="Gog8sl2S-dPBZnZGHHs7-83" value="" style="endArrow=diamondThin;endFill=1;endSize=24;html=1;rounded=0;" parent="WIyWlLk6GJQsqaUBKTNV-1" source="Gog8sl2S-dPBZnZGHHs7-48" target="Gog8sl2S-dPBZnZGHHs7-39" edge="1">
          <mxGeometry width="160" relative="1" as="geometry">
            <mxPoint x="20" y="487" as="sourcePoint" />
            <mxPoint x="20" y="400" as="targetPoint" />
          </mxGeometry>
        </mxCell>
        <mxCell id="Gog8sl2S-dPBZnZGHHs7-84" value="0..1" style="edgeLabel;html=1;align=center;verticalAlign=middle;resizable=0;points=[];" parent="Gog8sl2S-dPBZnZGHHs7-83" vertex="1" connectable="0">
          <mxGeometry x="-0.525" y="-1" relative="1" as="geometry">
            <mxPoint as="offset" />
          </mxGeometry>
        </mxCell>
        <mxCell id="Gog8sl2S-dPBZnZGHHs7-85" value="" style="endArrow=diamondThin;endFill=0;endSize=24;html=1;rounded=0;" parent="WIyWlLk6GJQsqaUBKTNV-1" source="Gog8sl2S-dPBZnZGHHs7-43" target="Gog8sl2S-dPBZnZGHHs7-39" edge="1">
          <mxGeometry width="160" relative="1" as="geometry">
            <mxPoint x="-140" y="450" as="sourcePoint" />
            <mxPoint x="20" y="450" as="targetPoint" />
          </mxGeometry>
        </mxCell>
        <mxCell id="Gog8sl2S-dPBZnZGHHs7-87" value="0..*" style="edgeLabel;html=1;align=center;verticalAlign=middle;resizable=0;points=[];" parent="Gog8sl2S-dPBZnZGHHs7-85" vertex="1" connectable="0">
          <mxGeometry x="-0.6583" y="1" relative="1" as="geometry">
            <mxPoint as="offset" />
          </mxGeometry>
        </mxCell>
        <mxCell id="Gog8sl2S-dPBZnZGHHs7-91" value="" style="html=1;verticalAlign=bottom;endArrow=block;curved=0;rounded=0;" parent="WIyWlLk6GJQsqaUBKTNV-1" source="Gog8sl2S-dPBZnZGHHs7-28" target="Gog8sl2S-dPBZnZGHHs7-5" edge="1">
          <mxGeometry width="80" relative="1" as="geometry">
            <mxPoint x="-50" y="270" as="sourcePoint" />
            <mxPoint x="30" y="270" as="targetPoint" />
          </mxGeometry>
        </mxCell>
        <mxCell id="Gog8sl2S-dPBZnZGHHs7-92" value="Admin" style="swimlane;fontStyle=1;align=center;verticalAlign=top;childLayout=stackLayout;horizontal=1;startSize=26;horizontalStack=0;resizeParent=1;resizeParentMax=0;resizeLast=0;collapsible=1;marginBottom=0;whiteSpace=wrap;html=1;" parent="WIyWlLk6GJQsqaUBKTNV-1" vertex="1">
          <mxGeometry x="-450" y="80" width="160" height="86" as="geometry" />
        </mxCell>
        <mxCell id="Gog8sl2S-dPBZnZGHHs7-93" value="-AdminID: int" style="text;strokeColor=none;fillColor=none;align=left;verticalAlign=top;spacingLeft=4;spacingRight=4;overflow=hidden;rotatable=0;points=[[0,0.5],[1,0.5]];portConstraint=eastwest;whiteSpace=wrap;html=1;" parent="Gog8sl2S-dPBZnZGHHs7-92" vertex="1">
          <mxGeometry y="26" width="160" height="26" as="geometry" />
        </mxCell>
        <mxCell id="Gog8sl2S-dPBZnZGHHs7-94" value="" style="line;strokeWidth=1;fillColor=none;align=left;verticalAlign=middle;spacingTop=-1;spacingLeft=3;spacingRight=3;rotatable=0;labelPosition=right;points=[];portConstraint=eastwest;strokeColor=inherit;" parent="Gog8sl2S-dPBZnZGHHs7-92" vertex="1">
          <mxGeometry y="52" width="160" height="8" as="geometry" />
        </mxCell>
        <mxCell id="Gog8sl2S-dPBZnZGHHs7-95" value="+AdminPrivilages(): void" style="text;strokeColor=none;fillColor=none;align=left;verticalAlign=top;spacingLeft=4;spacingRight=4;overflow=hidden;rotatable=0;points=[[0,0.5],[1,0.5]];portConstraint=eastwest;whiteSpace=wrap;html=1;" parent="Gog8sl2S-dPBZnZGHHs7-92" vertex="1">
          <mxGeometry y="60" width="160" height="26" as="geometry" />
        </mxCell>
        <mxCell id="Gog8sl2S-dPBZnZGHHs7-96" value="Client" style="swimlane;fontStyle=1;align=center;verticalAlign=top;childLayout=stackLayout;horizontal=1;startSize=26;horizontalStack=0;resizeParent=1;resizeParentMax=0;resizeLast=0;collapsible=1;marginBottom=0;whiteSpace=wrap;html=1;" parent="WIyWlLk6GJQsqaUBKTNV-1" vertex="1">
          <mxGeometry x="-450" y="-70" width="160" height="114" as="geometry" />
        </mxCell>
        <mxCell id="Gog8sl2S-dPBZnZGHHs7-97" value="-Gender: string&lt;br&gt;-Age: int&lt;br&gt;-clientID: int" style="text;strokeColor=none;fillColor=none;align=left;verticalAlign=top;spacingLeft=4;spacingRight=4;overflow=hidden;rotatable=0;points=[[0,0.5],[1,0.5]];portConstraint=eastwest;whiteSpace=wrap;html=1;" parent="Gog8sl2S-dPBZnZGHHs7-96" vertex="1">
          <mxGeometry y="26" width="160" height="54" as="geometry" />
        </mxCell>
        <mxCell id="Gog8sl2S-dPBZnZGHHs7-98" value="" style="line;strokeWidth=1;fillColor=none;align=left;verticalAlign=middle;spacingTop=-1;spacingLeft=3;spacingRight=3;rotatable=0;labelPosition=right;points=[];portConstraint=eastwest;strokeColor=inherit;" parent="Gog8sl2S-dPBZnZGHHs7-96" vertex="1">
          <mxGeometry y="80" width="160" height="8" as="geometry" />
        </mxCell>
        <mxCell id="Gog8sl2S-dPBZnZGHHs7-99" value="updateProfile(): void" style="text;strokeColor=none;fillColor=none;align=left;verticalAlign=top;spacingLeft=4;spacingRight=4;overflow=hidden;rotatable=0;points=[[0,0.5],[1,0.5]];portConstraint=eastwest;whiteSpace=wrap;html=1;" parent="Gog8sl2S-dPBZnZGHHs7-96" vertex="1">
          <mxGeometry y="88" width="160" height="26" as="geometry" />
        </mxCell>
        <mxCell id="a5kNeSCLx_zp2VpnFsLW-0" value="Chat" style="swimlane;fontStyle=1;align=center;verticalAlign=top;childLayout=stackLayout;horizontal=1;startSize=26;horizontalStack=0;resizeParent=1;resizeParentMax=0;resizeLast=0;collapsible=1;marginBottom=0;whiteSpace=wrap;html=1;" vertex="1" parent="WIyWlLk6GJQsqaUBKTNV-1">
          <mxGeometry x="-150" y="-350" width="160" height="170" as="geometry" />
        </mxCell>
        <mxCell id="a5kNeSCLx_zp2VpnFsLW-1" value="-ChatID: int&lt;br&gt;-ChatText: string&lt;br&gt;-ChatDate: date&lt;br&gt;ChatAuthor: string" style="text;strokeColor=none;fillColor=none;align=left;verticalAlign=top;spacingLeft=4;spacingRight=4;overflow=hidden;rotatable=0;points=[[0,0.5],[1,0.5]];portConstraint=eastwest;whiteSpace=wrap;html=1;" vertex="1" parent="a5kNeSCLx_zp2VpnFsLW-0">
          <mxGeometry y="26" width="160" height="74" as="geometry" />
        </mxCell>
        <mxCell id="a5kNeSCLx_zp2VpnFsLW-2" value="" style="line;strokeWidth=1;fillColor=none;align=left;verticalAlign=middle;spacingTop=-1;spacingLeft=3;spacingRight=3;rotatable=0;labelPosition=right;points=[];portConstraint=eastwest;strokeColor=inherit;" vertex="1" parent="a5kNeSCLx_zp2VpnFsLW-0">
          <mxGeometry y="100" width="160" height="8" as="geometry" />
        </mxCell>
        <mxCell id="a5kNeSCLx_zp2VpnFsLW-3" value="-getChat(): string&lt;br&gt;-postChat(string): void" style="text;strokeColor=none;fillColor=none;align=left;verticalAlign=top;spacingLeft=4;spacingRight=4;overflow=hidden;rotatable=0;points=[[0,0.5],[1,0.5]];portConstraint=eastwest;whiteSpace=wrap;html=1;" vertex="1" parent="a5kNeSCLx_zp2VpnFsLW-0">
          <mxGeometry y="108" width="160" height="62" as="geometry" />
        </mxCell>
        <mxCell id="a5kNeSCLx_zp2VpnFsLW-6" value="" style="endArrow=block;endSize=16;endFill=0;html=1;rounded=0;" edge="1" parent="WIyWlLk6GJQsqaUBKTNV-1" source="Gog8sl2S-dPBZnZGHHs7-92" target="Gog8sl2S-dPBZnZGHHs7-5">
          <mxGeometry width="160" relative="1" as="geometry">
            <mxPoint x="-70" y="210" as="sourcePoint" />
            <mxPoint x="90" y="210" as="targetPoint" />
          </mxGeometry>
        </mxCell>
        <mxCell id="a5kNeSCLx_zp2VpnFsLW-8" value="" style="endArrow=block;endSize=16;endFill=0;html=1;rounded=0;" edge="1" parent="WIyWlLk6GJQsqaUBKTNV-1" source="Gog8sl2S-dPBZnZGHHs7-96" target="Gog8sl2S-dPBZnZGHHs7-5">
          <mxGeometry width="160" relative="1" as="geometry">
            <mxPoint x="-60" y="220" as="sourcePoint" />
            <mxPoint x="100" y="220" as="targetPoint" />
          </mxGeometry>
        </mxCell>
      </root>
    </mxGraphModel>
  </diagram>
</mxfile>
